<svg version="1.1" id="Layer_1" xmlns="http://www.w3.org/2000/svg" xmlns:xlink="http://www.w3.org/1999/xlink" x="0px" y="0px"
	 width="100%" viewBox="0 0 117 111" enable-background="new 0 0 117 111" xml:space="preserve">
<path fill="#FFFFFE" opacity="1.000000" stroke="none" 
	d="
M118.000000,44.000000 
	C118.000000,67.000000 118.000000,89.499992 118.000000,112.000000 
	C79.000008,112.000000 40.000015,112.000000 1.000016,112.000000 
	C1.000011,75.000015 1.000011,38.000023 1.000005,1.000026 
	C39.999985,1.000018 78.999969,1.000018 117.999977,1.000009 
	C118.000000,15.166667 118.000000,29.333334 118.000000,44.000000 
M23.977432,97.005554 
	C23.977432,97.005554 23.920458,97.065414 24.327991,97.678726 
	C25.540131,97.734062 26.752272,97.789398 28.703461,97.967094 
	C31.110531,97.021294 33.517601,96.075500 36.108612,95.598808 
	C36.385883,95.777054 36.663158,95.955292 37.282627,96.840958 
	C37.515644,98.439423 37.328995,100.276985 38.073639,101.583946 
	C39.407307,103.924744 41.301575,105.946144 43.430279,108.734360 
	C51.044960,109.341522 54.685886,106.800484 54.952713,100.337830 
	C55.135986,95.898903 54.889847,91.442245 54.951912,86.297005 
	C55.590954,84.911964 56.229992,83.526932 57.151592,82.583397 
	C57.471046,82.605354 57.790501,82.627312 58.700878,82.633217 
	C59.094845,82.625221 59.488808,82.617226 60.454712,82.878494 
	C60.664932,82.879807 60.875153,82.881119 61.630619,83.141113 
	C62.143341,83.750183 62.656063,84.359261 63.037346,85.901413 
	C63.026142,90.692459 62.998955,95.483543 63.007523,100.274551 
	C63.020000,107.250305 68.533066,110.643730 74.997398,108.101212 
	C80.500488,105.936760 79.775482,101.346489 80.645020,96.835045 
	C81.081848,96.503166 81.518677,96.171295 82.474464,95.916405 
	C82.647026,95.888046 82.819588,95.859680 83.630882,96.193504 
	C86.917198,98.684853 90.196632,101.263390 93.999695,97.000305 
	C93.999695,97.000305 94.012505,97.017044 94.682976,96.962852 
	C95.172401,96.328094 95.661827,95.693336 96.755608,94.760223 
	C97.447861,93.178352 98.140121,91.596474 98.941376,89.292511 
	C97.758751,85.784706 96.337074,82.499321 91.706749,81.273567 
	C88.122787,79.563881 84.538834,77.854202 80.442772,75.891457 
	C79.993271,75.301407 79.543770,74.711357 79.651314,73.717094 
	C79.705750,72.821449 79.760185,71.925812 80.145859,70.389381 
	C81.892891,69.841530 83.872925,68.489532 85.338203,68.914101 
	C88.341217,69.784225 91.068100,71.607361 94.241180,73.674744 
	C99.442406,78.239082 106.553841,78.892960 110.011925,72.000992 
	C110.011925,72.000992 110.038895,72.074936 110.510773,71.908096 
	C110.829941,71.687027 110.931740,71.391182 110.941643,70.172958 
	C111.717354,65.658646 110.255219,62.369801 105.987656,60.272030 
	C104.797707,59.687096 104.061249,58.179592 103.735565,56.779064 
	C104.682259,56.150478 105.637817,55.534790 106.574112,54.891075 
	C110.632706,52.100742 112.351166,47.431412 110.552460,44.107418 
	C108.388451,40.108356 103.678513,38.070763 99.270813,39.931870 
	C94.368973,42.001625 89.741737,44.721745 84.246986,47.034752 
	C83.105736,46.708160 81.964485,46.381569 80.721283,45.343113 
	C81.146637,43.513340 81.571991,41.683571 82.675911,39.733566 
	C86.715492,37.354954 90.914925,35.204735 94.743744,32.524990 
	C97.771294,30.406048 99.631264,27.570524 98.244301,23.325125 
	C96.838211,19.021151 94.476967,16.403519 89.788818,17.064713 
	C87.146133,17.437424 84.597694,18.478394 81.454262,19.068340 
	C81.263771,19.064182 81.073280,19.060024 80.717384,18.441950 
	C80.665230,18.021542 80.613068,17.601131 80.877541,16.510029 
	C80.612198,15.644274 80.346863,14.778518 79.984848,13.231339 
	C78.721878,11.466423 77.458908,9.701507 75.739861,7.314454 
	C69.913651,4.855180 63.031414,6.815528 62.387089,11.992075 
	C61.696121,17.543400 62.814468,23.319933 62.847610,29.584223 
	C62.538918,30.372992 62.230221,31.161762 61.435703,32.042347 
	C61.435703,32.042347 60.972507,32.215290 60.496346,32.236008 
	C60.211166,32.408298 60.015434,32.652344 59.113060,32.993313 
	C57.790779,32.979324 56.468502,32.965332 55.034977,32.058834 
	C54.719986,28.693539 54.404999,25.328241 54.031231,21.346640 
	C54.046028,20.934507 54.060825,20.522373 54.671329,19.633659 
	C54.461754,17.731415 54.252182,15.829168 53.993176,13.193431 
	C52.651340,8.027706 48.828289,6.379308 43.279381,6.064713 
	C36.821838,9.021172 36.607765,9.475903 37.049828,19.437605 
	C37.049828,19.437605 36.945984,19.876553 36.200691,19.938885 
	C34.567310,19.187033 32.976814,18.316446 31.291706,17.707815 
	C27.678738,16.402878 23.878565,16.119478 21.376659,19.447241 
	C18.958605,22.663469 17.199390,26.843452 20.849543,30.164186 
	C24.232222,33.241585 28.250463,35.774693 32.329369,37.891212 
	C36.852848,40.238419 37.891548,42.894081 34.128880,46.985657 
	C32.307213,46.373413 30.390162,45.954082 28.683128,45.110008 
	C24.755737,43.168045 20.930513,41.019455 16.657116,38.381577 
	C15.394060,38.564030 14.131005,38.746483 12.296516,38.982590 
	C11.849535,39.263302 11.402554,39.544014 10.189679,39.947556 
	C4.942355,41.224503 6.058690,45.336918 6.246613,49.700665 
	C8.878016,52.443748 11.509419,55.186832 14.001060,58.413719 
	C13.985086,58.580585 13.969112,58.747448 13.241934,59.002018 
	C11.637240,60.102848 9.869886,61.028656 8.459921,62.339016 
	C4.950764,65.600281 5.364369,69.530945 7.730156,73.031357 
	C10.006672,76.399681 13.794423,78.219757 17.633358,76.539543 
	C22.016844,74.620979 25.926538,71.619911 30.847063,69.024864 
	C32.879711,69.379700 34.912357,69.734535 37.004250,70.879654 
	C37.040752,71.934410 37.077255,72.989159 36.861782,74.523788 
	C36.554184,74.960335 36.246590,75.396873 35.222801,75.949120 
	C32.459263,77.574997 29.695721,79.200874 26.228107,80.932808 
	C23.870859,82.958313 21.513613,84.983810 19.037973,87.861214 
	C19.070950,89.577057 19.103928,91.292900 19.151949,93.534073 
	C19.419441,93.745377 19.686932,93.956688 20.121811,94.591743 
	C20.325556,94.839439 20.586584,94.982941 21.095602,95.496574 
	C21.393684,95.602066 21.691765,95.707550 22.438368,95.945564 
	C22.438368,95.945564 22.899742,96.022156 23.093874,96.521042 
	C23.384310,96.709785 23.674747,96.898537 23.977432,97.005554 
z"/>
<path fill="#B14EA4" opacity="1.000000" stroke="none" 
	d="
M34.902351,46.963238 
	C37.891548,42.894081 36.852848,40.238419 32.329369,37.891212 
	C28.250463,35.774693 24.232222,33.241585 20.849543,30.164186 
	C17.199390,26.843452 18.958605,22.663469 21.376659,19.447241 
	C23.878565,16.119478 27.678738,16.402878 31.291706,17.707815 
	C32.976814,18.316446 34.567310,19.187033 36.597969,20.005779 
	C36.995251,20.072676 37.057953,20.264339 37.017921,20.660938 
	C35.246395,27.731180 35.750740,33.786674 39.558743,40.023605 
	C42.926918,45.540184 48.035759,48.087414 52.910030,51.465946 
	C51.579140,53.532097 50.376846,55.295338 48.893803,57.020283 
	C48.426117,56.954773 48.239182,56.927567 48.043739,56.586147 
	C48.015747,55.853298 47.996258,55.434662 47.848755,54.723961 
	C46.480480,53.290775 45.240223,52.149658 43.962776,50.658279 
	C41.976162,46.338058 38.615326,46.175663 34.902351,46.963238 
z"/>
<path fill="#D2E24A" opacity="1.000000" stroke="none" 
	d="
M103.116760,57.095314 
	C104.061249,58.179592 104.797707,59.687096 105.987656,60.272030 
	C110.255219,62.369801 111.717354,65.658646 110.690811,70.723625 
	C110.211784,71.493820 110.078094,71.760704 110.038895,72.074936 
	C110.038895,72.074936 110.011925,72.000992 109.652939,72.007721 
	C107.720726,71.824020 106.147491,71.633598 104.133842,71.389870 
	C105.734352,75.360657 103.420700,75.278145 101.043976,74.819466 
	C98.640465,74.355606 96.285118,73.642212 93.908669,73.038124 
	C91.068100,71.607361 88.341217,69.784225 85.338203,68.914101 
	C83.872925,68.489532 81.892891,69.841530 79.766380,70.899529 
	C79.244957,71.959732 79.103012,72.509789 78.699181,72.934311 
	C77.916924,72.559975 77.396545,72.311172 76.775604,71.833412 
	C76.404648,71.418259 76.134270,71.232056 75.755707,70.739967 
	C74.446548,69.619385 73.245575,68.804688 72.279037,67.799225 
	C71.677368,66.734718 70.841255,65.860985 70.003899,64.590805 
	C70.001770,63.138763 70.000885,62.083172 70.357201,61.056770 
	C73.303993,62.461777 75.800354,64.065918 78.501381,65.168831 
	C85.460999,68.010643 97.648346,63.319763 100.266342,57.030170 
	C100.681999,56.983624 100.848190,56.964397 101.365143,56.967392 
	C102.182869,57.024841 102.649811,57.060078 103.116760,57.095314 
z"/>
<path fill="#FCC23A" opacity="1.000000" stroke="none" 
	d="
M59.882774,82.609230 
	C59.488808,82.617226 59.094845,82.625221 58.232353,82.487579 
	C57.488941,82.170769 57.190678,82.104088 56.869034,82.141899 
	C56.229992,83.526932 55.590954,84.911964 54.518661,86.750748 
	C53.723396,88.893517 53.402771,90.592766 52.988636,92.268921 
	C52.498959,94.250809 51.928535,96.212738 51.294838,98.545021 
	C51.411232,98.668739 52.516071,99.372009 52.802994,100.322250 
	C52.978962,100.905037 51.845036,102.581978 51.396214,102.546371 
	C47.058693,102.202271 45.460232,105.806801 42.961525,108.101044 
	C41.301575,105.946144 39.407307,103.924744 38.073639,101.583946 
	C37.328995,100.276985 37.515644,98.439423 37.240768,96.178329 
	C37.469879,94.679062 37.740852,93.842430 38.348747,92.859970 
	C45.680931,90.441322 52.396019,87.615280 54.520954,79.679916 
	C55.523846,75.934708 55.500210,71.914612 55.862694,67.771378 
	C55.523861,67.073517 55.264030,66.623337 55.376442,66.112389 
	C56.498920,66.095360 57.249153,66.139099 58.008659,66.562347 
	C59.334747,69.627388 60.651558,72.312912 61.977444,75.373581 
	C61.987110,76.499245 61.987705,77.249748 61.690525,78.039314 
	C61.077629,78.487564 60.762508,78.896751 60.447392,79.305946 
	C60.966625,79.537415 61.485855,79.768883 61.984428,80.303596 
	C61.628613,81.074890 61.293457,81.542938 60.756645,82.069443 
	C60.277412,82.213623 60.053341,82.374062 59.882774,82.609230 
z"/>
<path fill="#B34EA5" opacity="1.000000" stroke="none" 
	d="
M34.515617,46.974449 
	C38.615326,46.175663 41.976162,46.338058 43.587021,50.657059 
	C42.496758,51.007706 41.745052,51.009315 40.636681,50.848656 
	C38.186638,50.457912 36.093266,50.229435 33.912956,49.830524 
	C33.552402,49.775078 33.278778,49.890060 32.585548,50.009335 
	C25.302382,50.121197 19.937382,53.509571 14.791965,57.881630 
	C14.576246,57.912304 14.140824,57.929916 14.140823,57.929916 
	C11.509419,55.186832 8.878016,52.443748 6.533682,49.285973 
	C8.397651,47.609848 9.974550,46.348419 10.955572,45.563660 
	C10.955572,43.346272 10.955572,41.585499 10.955572,39.824726 
	C11.402554,39.544014 11.849535,39.263302 13.001820,38.977600 
	C14.826024,38.966648 15.944925,38.960682 17.063828,38.954720 
	C20.930513,41.019455 24.755737,43.168045 28.683128,45.110008 
	C30.390162,45.954082 32.307213,46.373413 34.515617,46.974449 
z"/>
<path fill="#F5BD1B" opacity="1.000000" stroke="none" 
	d="
M60.958298,82.010986 
	C61.293457,81.542938 61.628613,81.074890 61.985023,79.970215 
	C62.000282,78.889137 61.994293,78.444695 61.988300,78.000252 
	C61.987705,77.249748 61.987110,76.499245 61.986042,74.936432 
	C61.997009,72.083015 62.008453,70.041924 62.397110,68.005905 
	C64.435036,68.640114 66.050224,69.482201 67.766983,69.849113 
	C70.429588,70.418167 73.161415,70.663361 75.863892,71.045860 
	C76.134270,71.232056 76.404648,71.418259 76.515984,72.096359 
	C76.490715,75.489281 77.256378,78.540253 76.611771,81.256554 
	C75.617737,85.445244 77.258507,86.775238 80.956039,87.448372 
	C80.953423,89.912140 80.931709,91.941261 80.527634,93.979904 
	C78.185410,93.364731 76.171410,92.869850 74.280006,92.081001 
	C72.132782,91.185471 70.095245,90.026917 67.971786,88.641098 
	C66.345299,87.189095 64.757042,86.078712 63.168785,84.968330 
	C62.656063,84.359261 62.143341,83.750183 61.315884,82.795464 
	C61.001148,82.449814 60.958298,82.010986 60.958298,82.010986 
z"/>
<path fill="#99CA66" opacity="1.000000" stroke="none" 
	d="
M82.006805,19.218332 
	C84.597694,18.478394 87.146133,17.437424 89.788818,17.064713 
	C94.476967,16.403519 96.838211,19.021151 98.244301,23.325125 
	C99.631264,27.570524 97.771294,30.406048 94.743744,32.524990 
	C90.914925,35.204735 86.715492,37.354954 82.337517,39.408554 
	C81.671051,37.055283 81.342972,35.027023 81.007591,32.570816 
	C80.961288,28.382341 80.922287,24.621813 80.918579,20.883545 
	C80.953865,20.905806 80.879875,20.944393 81.140152,20.837440 
	C81.602554,20.226437 81.804680,19.722385 82.006805,19.218332 
z"/>
<path fill="#F49051" opacity="1.000000" stroke="none" 
	d="
M30.042120,69.089249 
	C25.926538,71.619911 22.016844,74.620979 17.633358,76.539543 
	C13.794423,78.219757 10.006672,76.399681 7.730156,73.031357 
	C5.364369,69.530945 4.950764,65.600281 8.459921,62.339016 
	C9.869886,61.028656 11.637240,60.102848 13.753454,59.275085 
	C16.236839,60.673828 18.236519,61.753880 20.174374,62.935341 
	C23.484037,64.953156 26.754936,67.034561 30.042120,69.089249 
z"/>
<path fill="#99CA64" opacity="1.000000" stroke="none" 
	d="
M103.426163,56.937187 
	C102.649811,57.060078 102.182869,57.024841 101.355064,56.602077 
	C97.329399,53.479607 93.664589,50.744671 89.698448,48.029694 
	C88.927734,48.378780 88.458344,48.707909 87.615814,49.029774 
	C86.496437,49.012756 85.750198,49.003006 85.003922,48.687454 
	C85.000900,47.974010 84.997925,47.566368 84.994949,47.158730 
	C89.741737,44.721745 94.368973,42.001625 99.270813,39.931870 
	C103.678513,38.070763 108.388451,40.108356 110.552460,44.107418 
	C112.351166,47.431412 110.632706,52.100742 106.574112,54.891075 
	C105.637817,55.534790 104.682259,56.150478 103.426163,56.937187 
z"/>
<path fill="#FBC33F" opacity="1.000000" stroke="none" 
	d="
M63.103065,85.434875 
	C64.757042,86.078712 66.345299,87.189095 68.004311,88.999710 
	C69.779213,92.583107 71.483360,95.466263 73.696968,99.211349 
	C75.447357,98.621895 77.790749,97.832741 80.134132,97.043587 
	C79.775482,101.346489 80.500488,105.936760 74.997398,108.101212 
	C68.533066,110.643730 63.020000,107.250305 63.007523,100.274551 
	C62.998955,95.483543 63.026142,90.692459 63.103065,85.434875 
z"/>
<path fill="#D4E149" opacity="1.000000" stroke="none" 
	d="
M80.910004,93.970383 
	C80.931709,91.941261 80.953423,89.912140 80.978470,87.020996 
	C80.972824,82.820824 80.963844,79.482674 80.954872,76.144516 
	C84.538834,77.854202 88.122787,79.563881 91.870590,81.973953 
	C92.975159,85.021744 93.915894,87.369156 94.902100,89.830040 
	C96.216911,89.891785 97.524643,89.953194 98.832375,90.014603 
	C98.140121,91.596474 97.447861,93.178352 96.115578,94.925270 
	C94.987869,95.732559 94.500191,96.374802 94.012512,97.017044 
	C94.012505,97.017044 93.999695,97.000305 93.596466,96.998184 
	C90.688904,95.938217 88.237122,94.698029 85.643333,93.950638 
	C84.994148,93.763565 83.888184,95.161720 82.992157,95.831322 
	C82.819588,95.859680 82.647026,95.888046 82.102402,95.635345 
	C81.456894,94.892990 81.183449,94.431686 80.910004,93.970383 
z"/>
<path fill="#F4914E" opacity="1.000000" stroke="none" 
	d="
M22.899742,96.022156 
	C22.899742,96.022156 22.438368,95.945564 22.081787,95.688255 
	C21.498880,95.200172 21.225443,95.063934 20.904892,95.022232 
	C20.586584,94.982941 20.325556,94.839439 19.977432,94.139656 
	C19.681934,93.378288 19.449884,93.152016 19.136906,93.008743 
	C19.103928,91.292900 19.070950,89.577057 19.461708,87.442986 
	C25.837692,89.974213 27.038921,89.176163 26.984238,82.304039 
	C26.980318,81.811501 26.950144,81.319176 26.932178,80.826752 
	C29.695721,79.200874 32.459263,77.574997 35.598988,76.337311 
	C35.958340,82.860237 35.941505,88.994972 35.924675,95.129700 
	C33.517601,96.075500 31.110531,97.021294 28.079165,97.661575 
	C26.276731,97.259178 25.098595,97.162292 23.920458,97.065414 
	C23.920458,97.065414 23.977432,97.005554 23.871696,96.800400 
	C23.477221,96.404213 23.188482,96.213181 22.899742,96.022156 
z"/>
<path fill="#5AB8E5" opacity="1.000000" stroke="none" 
	d="
M54.075619,20.110241 
	C54.060825,20.522373 54.046028,20.934507 53.774429,21.873962 
	C52.174915,23.165451 50.895199,24.094503 49.468750,24.639482 
	C48.405602,25.045658 47.152660,24.955063 45.675407,24.931013 
	C43.194317,23.239035 41.022064,21.701748 38.896866,19.885334 
	C38.953487,19.417742 38.963047,19.229273 38.980446,18.626266 
	C39.454830,16.418802 39.711517,14.535023 40.438839,12.854993 
	C41.441608,10.538716 42.799725,8.376278 44.005623,6.147942 
	C48.828289,6.379308 52.651340,8.027706 54.001308,14.001671 
	C54.031502,16.576687 54.053558,18.343464 54.075619,20.110241 
z"/>
<path fill="#96CA67" opacity="1.000000" stroke="none" 
	d="
M81.014893,32.998764 
	C81.342972,35.027023 81.671051,37.055283 81.998230,39.468670 
	C81.571991,41.683571 81.146637,43.513340 80.542191,45.918999 
	C80.241600,47.329823 80.120094,48.164761 79.775986,49.260601 
	C77.368790,50.331646 75.184196,51.141788 72.743713,51.682083 
	C70.984230,51.271858 69.480637,51.131481 68.128342,50.688866 
	C74.366394,45.939556 79.183197,40.562336 81.014893,32.998764 
z"/>
<path fill="#5FB5E1" opacity="1.000000" stroke="none" 
	d="
M55.146221,32.951340 
	C56.468502,32.965332 57.790779,32.979324 59.727753,32.917046 
	C60.624058,32.704395 60.834080,32.495899 60.972507,32.215290 
	C60.972507,32.215290 61.435703,32.042347 61.758968,32.053429 
	C62.082233,32.064507 62.247707,32.169857 62.159019,32.579659 
	C61.731373,38.272198 61.392414,43.554939 60.725452,48.998703 
	C58.841465,49.035694 57.285480,48.911667 55.746983,48.392937 
	C55.817902,46.682117 55.871330,45.366001 55.975235,43.776871 
	C56.001064,43.320423 55.976414,43.136982 55.978447,42.615700 
	C56.046867,41.828049 56.088604,41.378239 56.367210,40.748608 
	C56.388680,39.715595 56.173279,38.862400 55.904945,37.664032 
	C55.756233,36.863632 55.660458,36.408401 55.584190,35.763611 
	C55.479435,35.321968 55.277302,35.182037 54.784981,35.041351 
	C54.572662,34.928436 54.122490,34.759148 54.139328,34.563522 
	C54.156170,34.367893 54.064022,33.986149 54.106735,33.735596 
	C54.171356,33.317024 54.193260,33.149002 54.448292,32.984894 
	C54.681416,32.988808 55.146221,32.951340 55.146221,32.951340 
z"/>
<path fill="#EE8869" opacity="1.000000" stroke="none" 
	d="
M30.444592,69.057053 
	C26.754936,67.034561 23.484037,64.953156 20.174374,62.935341 
	C18.236519,61.753880 16.236839,60.673828 14.109056,59.231232 
	C13.969112,58.747448 13.985086,58.580585 14.070942,58.171818 
	C14.140824,57.929916 14.576246,57.912304 15.100343,58.061440 
	C20.752533,60.444580 25.880625,62.678581 31.424723,64.946945 
	C33.912201,64.687431 35.983673,64.393547 38.375732,64.064133 
	C39.122658,63.973106 39.549004,63.917618 40.344963,63.899086 
	C42.136909,63.613632 43.559242,63.291225 44.971310,63.295502 
	C44.307598,64.423340 43.654152,65.224487 42.628372,66.023712 
	C40.485691,67.377647 38.715351,68.733513 36.945007,70.089371 
	C34.912357,69.734535 32.879711,69.379700 30.444592,69.057053 
z"/>
<path fill="#F8C347" opacity="1.000000" stroke="none" 
	d="
M43.195904,108.417702 
	C45.460232,105.806801 47.058693,102.202271 51.396214,102.546371 
	C51.845036,102.581978 52.978962,100.905037 52.802994,100.322250 
	C52.516071,99.372009 51.411232,98.668739 51.294838,98.545021 
	C51.928535,96.212738 52.498959,94.250809 52.988636,92.268921 
	C53.402771,90.592766 53.723396,88.893517 54.460526,87.098999 
	C54.889847,91.442245 55.135986,95.898903 54.952713,100.337830 
	C54.685886,106.800484 51.044960,109.341522 43.195904,108.417702 
z"/>
<path fill="#58B6DF" opacity="1.000000" stroke="none" 
	d="
M80.560913,17.180721 
	C80.613068,17.601131 80.665230,18.021542 80.779655,19.064020 
	C80.854576,20.105524 80.867226,20.524960 80.879868,20.944393 
	C80.879875,20.944393 80.953865,20.905806 80.544891,20.849501 
	C76.760551,22.226122 73.385178,23.659050 70.006157,24.624752 
	C70.002510,20.863075 70.002510,17.568623 70.002510,13.463092 
	C74.106781,14.949024 76.976997,15.988170 80.024780,17.069622 
	C80.202354,17.111931 80.560913,17.180721 80.560913,17.180721 
z"/>
<path fill="#65B4D3" opacity="1.000000" stroke="none" 
	d="
M63.143219,28.998182 
	C62.814468,23.319933 61.696121,17.543400 62.387089,11.992075 
	C63.031414,6.815528 69.913651,4.855180 75.600403,7.645391 
	C74.971321,7.985229 74.481689,7.994130 73.661407,8.001434 
	C72.889648,8.000781 72.448555,8.001726 71.671837,8.000313 
	C70.888733,8.000751 70.441246,8.003549 69.637665,8.043755 
	C64.313034,10.170089 64.471954,14.732570 64.010231,19.451918 
	C64.012550,22.925451 64.019791,25.945084 63.806160,28.975307 
	C63.585293,28.985897 63.143219,28.998182 63.143219,28.998182 
z"/>
<path fill="#FAC336" opacity="1.000000" stroke="none" 
	d="
M80.527634,93.979904 
	C81.183449,94.431686 81.456894,94.892990 81.842926,95.596863 
	C81.518677,96.171295 81.081848,96.503166 80.389572,96.939316 
	C77.790749,97.832741 75.447357,98.621895 73.696968,99.211349 
	C71.483360,95.466263 69.779213,92.583107 68.042542,89.341331 
	C70.095245,90.026917 72.132782,91.185471 74.280006,92.081001 
	C76.171410,92.869850 78.185410,93.364731 80.527634,93.979904 
z"/>
<path fill="#EAC21D" opacity="1.000000" stroke="none" 
	d="
M80.698822,76.017990 
	C80.963844,79.482674 80.972824,82.820824 80.959381,86.586349 
	C77.258507,86.775238 75.617737,85.445244 76.611771,81.256554 
	C77.256378,78.540253 76.490715,75.489281 76.616562,72.325317 
	C77.396545,72.311172 77.916924,72.559975 78.721649,73.200760 
	C79.035423,73.768929 79.064842,73.945114 79.094269,74.121307 
	C79.543770,74.711357 79.993271,75.301407 80.698822,76.017990 
z"/>
<path fill="#6FABDC" opacity="1.000000" stroke="none" 
	d="
M55.090599,32.505089 
	C55.146221,32.951340 54.681416,32.988808 54.195484,32.963623 
	C53.542206,32.922688 53.374863,32.906944 53.136826,32.553913 
	C50.705505,29.839647 48.344875,27.462675 45.984245,25.085705 
	C47.152660,24.955063 48.405602,25.045658 49.468750,24.639482 
	C50.895199,24.094503 52.174915,23.165451 53.803818,22.182116 
	C54.404999,25.328241 54.719986,28.693539 55.090599,32.505089 
z"/>
<path fill="#F49B38" opacity="1.000000" stroke="none" 
	d="
M36.016640,95.364258 
	C35.941505,88.994972 35.958340,82.860237 35.957085,76.279465 
	C36.246590,75.396873 36.554184,74.960335 37.226669,74.385590 
	C38.050098,74.489021 38.508644,74.730667 38.979435,75.230698 
	C38.996712,75.661232 39.001747,75.833389 38.996819,76.403275 
	C36.675282,82.083069 36.040943,87.466049 38.011826,93.005791 
	C37.740852,93.842430 37.469879,94.679062 37.069672,95.824615 
	C36.663158,95.955292 36.385883,95.777054 36.016640,95.364258 
z"/>
<path fill="#68B5D9" opacity="1.000000" stroke="none" 
	d="
M43.642502,6.106328 
	C42.799725,8.376278 41.441608,10.538716 40.438839,12.854993 
	C39.711517,14.535023 39.454830,16.418802 38.682625,18.613422 
	C37.980042,19.012627 37.583115,19.010139 37.186188,19.007652 
	C36.607765,9.475903 36.821838,9.021172 43.642502,6.106328 
z"/>
<path fill="#D0DF57" opacity="1.000000" stroke="none" 
	d="
M94.074921,73.356430 
	C96.285118,73.642212 98.640465,74.355606 101.043976,74.819466 
	C103.420700,75.278145 105.734352,75.360657 104.133842,71.389870 
	C106.147491,71.633598 107.720726,71.824020 109.682449,72.033768 
	C106.553841,78.892960 99.442406,78.239082 94.074921,73.356430 
z"/>
<path fill="#F29257" opacity="1.000000" stroke="none" 
	d="
M26.580143,80.879776 
	C26.950144,81.319176 26.980318,81.811501 26.984238,82.304039 
	C27.038921,89.176163 25.837692,89.974213 19.520905,87.017029 
	C21.513613,84.983810 23.870859,82.958313 26.580143,80.879776 
z"/>
<path fill="#AE529D" opacity="1.000000" stroke="none" 
	d="
M10.572626,39.886139 
	C10.955572,41.585499 10.955572,43.346272 10.955572,45.563660 
	C9.974550,46.348419 8.397651,47.609848 6.489320,48.933701 
	C6.058690,45.336918 4.942355,41.224503 10.572626,39.886139 
z"/>
<path fill="#D2DF57" opacity="1.000000" stroke="none" 
	d="
M98.886871,89.653557 
	C97.524643,89.953194 96.216911,89.891785 94.902100,89.830040 
	C93.915894,87.369156 92.975159,85.021744 92.040741,82.278557 
	C96.337074,82.499321 97.758751,85.784706 98.886871,89.653557 
z"/>
<path fill="#D1DF57" opacity="1.000000" stroke="none" 
	d="
M83.311523,96.012413 
	C83.888184,95.161720 84.994148,93.763565 85.643333,93.950638 
	C88.237122,94.698029 90.688904,95.938217 93.604233,97.004730 
	C90.196632,101.263390 86.917198,98.684853 83.311523,96.012413 
z"/>
<path fill="#58B6DF" opacity="1.000000" stroke="none" 
	d="
M73.992065,8.003032 
	C74.481689,7.994130 74.971321,7.985229 75.828438,7.956459 
	C77.458908,9.701507 78.721878,11.466423 79.985367,13.841475 
	C79.964401,14.632603 79.942902,14.813597 79.568893,14.956725 
	C75.806038,13.874306 73.473358,12.015660 73.992065,8.003032 
z"/>
<path fill="#F3914D" opacity="1.000000" stroke="none" 
	d="
M38.967194,74.972305 
	C38.508644,74.730667 38.050098,74.489021 37.352657,74.145645 
	C37.077255,72.989159 37.040752,71.934410 36.974632,70.484512 
	C38.715351,68.733513 40.485691,67.377647 42.571571,66.372513 
	C41.599873,68.830482 40.312637,70.937714 39.019833,73.366455 
	C38.998577,74.116074 38.982887,74.544182 38.967194,74.972305 
z"/>
<path fill="#9DCA59" opacity="1.000000" stroke="none" 
	d="
M79.998581,48.999699 
	C80.120094,48.164761 80.241600,47.329823 80.593170,46.274929 
	C81.964485,46.381569 83.105736,46.708160 84.620972,47.096741 
	C84.997925,47.566368 85.000900,47.974010 84.586761,48.696865 
	C82.779289,49.007954 81.388931,49.003826 79.998581,48.999699 
z"/>
<path fill="#78B5D3" opacity="1.000000" stroke="none" 
	d="
M54.373474,19.871950 
	C54.053558,18.343464 54.031502,16.576687 54.026024,14.368417 
	C54.252182,15.829168 54.461754,17.731415 54.373474,19.871950 
z"/>
<path fill="#67B9C9" opacity="1.000000" stroke="none" 
	d="
M62.995415,29.291203 
	C63.143219,28.998182 63.585293,28.985897 64.042511,28.982145 
	C64.499733,28.978394 64.973152,28.989399 64.861160,29.289541 
	C63.915340,30.449739 63.081520,31.309797 62.247704,32.169853 
	C62.247707,32.169857 62.082233,32.064507 62.001881,32.007519 
	C62.230221,31.161762 62.538918,30.372992 62.995415,29.291203 
z"/>
<path fill="#D1DF57" opacity="1.000000" stroke="none" 
	d="
M94.347748,96.989952 
	C94.500191,96.374802 94.987869,95.732559 95.813400,95.074448 
	C95.661827,95.693336 95.172401,96.328094 94.347748,96.989952 
z"/>
<path fill="#E99162" opacity="1.000000" stroke="none" 
	d="
M24.124226,97.372070 
	C25.098595,97.162292 26.276731,97.259178 27.709641,97.600395 
	C26.752272,97.789398 25.540131,97.734062 24.124226,97.372070 
z"/>
<path fill="#A7719A" opacity="1.000000" stroke="none" 
	d="
M16.860472,38.668144 
	C15.944925,38.960682 14.826024,38.966648 13.287536,38.950775 
	C14.131005,38.746483 15.394060,38.564030 16.860472,38.668144 
z"/>
<path fill="#D5DD5C" opacity="1.000000" stroke="none" 
	d="
M79.372787,73.919205 
	C79.064842,73.945114 79.035423,73.768929 78.983536,73.326294 
	C79.103012,72.509789 79.244957,71.959732 79.600769,71.219925 
	C79.760185,71.925812 79.705750,72.821449 79.372787,73.919205 
z"/>
<path fill="#97C6DA" opacity="1.000000" stroke="none" 
	d="
M79.921402,14.994592 
	C79.942902,14.813597 79.964401,14.632603 80.033707,14.182185 
	C80.346863,14.778518 80.612198,15.644274 80.719223,16.845375 
	C80.560913,17.180721 80.202354,17.111931 80.078300,16.732946 
	C79.943298,15.900839 79.932350,15.447715 79.921402,14.994592 
z"/>
<path fill="#858BC8" opacity="1.000000" stroke="none" 
	d="
M37.118008,19.222630 
	C37.583115,19.010139 37.980042,19.012627 38.674789,19.027960 
	C38.963047,19.229273 38.953487,19.417742 38.597107,19.872971 
	C37.852840,20.181267 37.455399,20.222803 37.057953,20.264339 
	C37.057953,20.264339 36.995251,20.072676 36.970619,19.974613 
	C36.945984,19.876553 37.049828,19.437605 37.118008,19.222630 
z"/>
<path fill="#78BD61" opacity="1.000000" stroke="none" 
	d="
M81.140144,20.837440 
	C80.867226,20.524960 80.854576,20.105524 80.862366,19.370979 
	C81.073280,19.060024 81.263771,19.064182 81.730530,19.143337 
	C81.804680,19.722385 81.602554,20.226437 81.140144,20.837440 
z"/>
<path fill="#67B9C9" opacity="1.000000" stroke="none" 
	d="
M60.734428,32.225647 
	C60.834080,32.495899 60.624058,32.704395 60.125793,32.904465 
	C60.015434,32.652344 60.211166,32.408298 60.734428,32.225647 
z"/>
<path fill="#E3925C" opacity="1.000000" stroke="none" 
	d="
M22.996809,96.271599 
	C23.188482,96.213181 23.477221,96.404213 23.865572,96.841263 
	C23.674747,96.898537 23.384310,96.709785 22.996809,96.271599 
z"/>
<path fill="#E3925C" opacity="1.000000" stroke="none" 
	d="
M21.000248,95.259399 
	C21.225443,95.063934 21.498880,95.200172 21.857525,95.621994 
	C21.691765,95.707550 21.393684,95.602066 21.000248,95.259399 
z"/>
<path fill="#D0DF57" opacity="1.000000" stroke="none" 
	d="
M110.274834,71.991516 
	C110.078094,71.760704 110.211784,71.493820 110.628075,71.147423 
	C110.931740,71.391182 110.829941,71.687027 110.274834,71.991516 
z"/>
<path fill="#E3925C" opacity="1.000000" stroke="none" 
	d="
M19.144428,93.271408 
	C19.449884,93.152016 19.681934,93.378288 19.893738,93.927780 
	C19.686932,93.956688 19.419441,93.745377 19.144428,93.271408 
z"/>
<path fill="#EED58D" opacity="1.000000" stroke="none" 
	d="
M60.756645,82.069443 
	C60.958298,82.010986 61.001148,82.449814 61.043259,82.666122 
	C60.875153,82.881119 60.664932,82.879807 60.168743,82.743866 
	C60.053341,82.374062 60.277412,82.213623 60.756645,82.069443 
z"/>
<path fill="#EED58D" opacity="1.000000" stroke="none" 
	d="
M57.010315,82.362648 
	C57.190678,82.104088 57.488941,82.170769 57.936890,82.495605 
	C57.790501,82.627312 57.471046,82.605354 57.010315,82.362648 
z"/>
<path fill="#92409F" opacity="1.000000" stroke="none" 
	d="
M37.017921,20.660938 
	C37.455399,20.222803 37.852840,20.181267 38.550049,20.152096 
	C41.022064,21.701748 43.194317,23.239035 45.675407,24.931011 
	C48.344875,27.462675 50.705505,29.839647 52.934875,32.691109 
	C53.223755,33.439117 53.643887,33.712631 54.064022,33.986149 
	C54.064022,33.986149 54.156170,34.367893 54.089249,34.949669 
	C54.310783,36.693905 54.599239,37.856365 54.934181,39.311378 
	C55.282425,40.083096 55.584183,40.562263 55.959114,41.039284 
	C56.032284,41.037144 56.130344,40.928425 56.130344,40.928425 
	C56.088604,41.378239 56.046867,41.828049 55.803574,42.710716 
	C55.539120,43.259449 55.393585,43.428619 55.427887,43.481815 
	C55.562782,43.690990 55.754280,43.863659 55.924763,44.049881 
	C55.871330,45.366001 55.817902,46.682117 55.510422,48.574001 
	C54.517128,49.820858 53.777882,50.491951 53.038635,51.163040 
	C48.035759,48.087414 42.926918,45.540184 39.558743,40.023605 
	C35.750740,33.786674 35.246395,27.731180 37.017921,20.660938 
z"/>
<path fill="#B13880" opacity="1.000000" stroke="none" 
	d="
M39.975346,63.862129 
	C39.549004,63.917618 39.122658,63.973106 38.120560,63.764896 
	C35.366104,63.971657 33.187412,64.442116 31.008718,64.912582 
	C25.880625,62.678581 20.752533,60.444580 15.316061,58.030769 
	C19.937382,53.509571 25.302382,50.121197 32.834213,50.009087 
	C33.502480,50.004547 33.999889,50.000957 33.999889,50.000954 
	C36.093266,50.229435 38.186638,50.457912 40.679852,51.213234 
	C42.201195,55.311172 45.135784,55.065060 47.976768,55.016022 
	C47.996258,55.434662 48.015747,55.853298 47.851097,56.873322 
	C45.103088,59.603848 42.539219,61.732990 39.975346,63.862129 
z"/>
<path fill="#FEFDFC" opacity="1.000000" stroke="none" 
	d="
M52.910034,51.465950 
	C53.777882,50.491951 54.517128,49.820858 55.492935,48.968704 
	C57.285480,48.911667 58.841465,49.035694 60.996876,49.142883 
	C62.406643,49.687366 63.216988,50.248684 64.282837,50.939056 
	C64.984596,51.414764 65.430832,51.761425 65.914917,52.435448 
	C66.588799,53.858959 67.224831,54.955101 67.826675,56.338379 
	C67.658836,57.488880 67.525192,58.352253 67.316498,59.503128 
	C66.464256,61.499161 65.687065,63.207687 64.587616,64.960510 
	C63.522003,65.404388 62.778656,65.803970 61.636200,66.126633 
	C60.157860,66.094093 59.078621,66.138466 57.999386,66.182831 
	C57.249153,66.139099 56.498920,66.095360 55.123970,65.978508 
	C54.051285,65.561913 53.603317,65.218430 53.093399,64.544449 
	C52.048611,62.783623 51.065769,61.353287 50.061790,59.612312 
	C49.751957,58.553978 49.463257,57.806282 49.174557,57.058582 
	C50.376846,55.295338 51.579140,53.532097 52.910034,51.465950 
z"/>
<path fill="#B33F6A" opacity="1.000000" stroke="none" 
	d="
M48.893803,57.020283 
	C49.463257,57.806282 49.751957,58.553978 50.012417,59.595978 
	C49.984177,59.890278 49.904842,59.959415 49.610367,59.984711 
	C48.858932,60.336823 48.401970,60.663639 47.690880,61.113155 
	C46.962646,61.536880 46.488544,61.837902 45.771770,62.176723 
	C45.218304,62.383835 45.032776,62.642906 44.984104,62.994106 
	C44.995693,62.996487 44.981575,62.968822 44.981575,62.968819 
	C43.559242,63.291225 42.136909,63.613632 40.344963,63.899086 
	C42.539219,61.732990 45.103088,59.603848 47.859604,57.187531 
	C48.239182,56.927567 48.426117,56.954773 48.893803,57.020283 
z"/>
<path fill="#B03D8F" opacity="1.000000" stroke="none" 
	d="
M47.848755,54.723961 
	C45.135784,55.065060 42.201195,55.311172 41.036522,51.375496 
	C41.745052,51.009315 42.496758,51.007706 43.624214,51.007317 
	C45.240223,52.149658 46.480480,53.290775 47.848755,54.723961 
z"/>
<path fill="#C0D82B" opacity="1.000000" stroke="none" 
	d="
M100.016884,57.057487 
	C97.648346,63.319763 85.460999,68.010643 78.501381,65.168831 
	C75.800354,64.065918 73.303993,62.461777 70.112442,60.883514 
	C69.342873,60.120022 69.175255,59.558979 69.131500,58.702469 
	C69.500366,57.602108 69.745369,56.797215 69.994690,55.995628 
	C69.999008,55.998940 69.992630,55.990089 70.357033,55.953796 
	C78.099899,51.464588 85.692627,50.318165 93.694130,54.281868 
	C94.678383,54.769440 95.909828,54.757973 97.301971,55.108475 
	C98.390442,55.845287 99.203667,56.451385 100.016884,57.057487 
z"/>
<path fill="#EAC21D" opacity="1.000000" stroke="none" 
	d="
M62.035309,66.203545 
	C62.778656,65.803970 63.522003,65.404388 64.972351,64.985229 
	C66.451614,64.977356 67.223877,64.989052 68.170654,65.263283 
	C69.578323,66.347206 70.811455,67.168602 72.044594,67.989998 
	C73.245575,68.804688 74.446548,69.619385 75.755707,70.739967 
	C73.161415,70.663361 70.429588,70.418167 67.766983,69.849113 
	C66.050224,69.482201 64.435036,68.640114 62.393585,67.706306 
	C62.020336,67.002266 62.027824,66.602905 62.035309,66.203545 
z"/>
<path fill="#9DCA59" opacity="1.000000" stroke="none" 
	d="
M100.266342,57.030167 
	C99.203667,56.451385 98.390442,55.845287 97.144859,54.809402 
	C94.812447,53.243797 92.912384,52.107979 90.984444,50.656975 
	C90.637634,49.564434 90.318710,48.787083 89.999779,48.009731 
	C93.664589,50.744671 97.329399,53.479607 101.004288,56.579857 
	C100.848190,56.964397 100.681999,56.983624 100.266342,57.030167 
z"/>
<path fill="#D6DF43" opacity="1.000000" stroke="none" 
	d="
M67.996132,65.000755 
	C67.223877,64.989052 66.451614,64.977356 65.294617,64.940933 
	C65.687065,63.207687 66.464256,61.499161 67.720383,59.437965 
	C68.468765,59.056183 68.738205,59.027061 69.007637,58.997940 
	C69.175255,59.558979 69.342873,60.120022 69.755249,60.854317 
	C70.000885,62.083172 70.001770,63.138763 69.669029,64.594528 
	C68.888985,64.996712 68.442558,64.998734 67.996132,65.000755 
z"/>
<path fill="#E2DB41" opacity="1.000000" stroke="none" 
	d="
M68.170654,65.263283 
	C68.442558,64.998734 68.888985,64.996712 69.670280,64.990967 
	C70.841255,65.860985 71.677368,66.734718 72.279037,67.799225 
	C70.811455,67.168602 69.578323,66.347206 68.170654,65.263283 
z"/>
<path fill="#FBAD1A" opacity="1.000000" stroke="none" 
	d="
M38.348743,92.859970 
	C36.040943,87.466049 36.675282,82.083069 39.343109,76.366730 
	C40.975483,74.945618 42.120853,73.665039 43.552563,73.027809 
	C47.619678,71.217598 51.803703,69.670036 55.941700,68.019073 
	C55.500210,71.914612 55.523846,75.934708 54.520954,79.679916 
	C52.396019,87.615280 45.680931,90.441322 38.348743,92.859970 
z"/>
<path fill="#FAA72A" opacity="1.000000" stroke="none" 
	d="
M55.862694,67.771378 
	C51.803703,69.670036 47.619678,71.217598 43.552563,73.027809 
	C42.120853,73.665039 40.975483,74.945618 39.353077,75.969002 
	C39.001747,75.833389 38.996712,75.661232 38.979439,75.230690 
	C38.982887,74.544182 38.998577,74.116074 39.318352,73.196472 
	C43.419525,69.783859 47.216610,66.862740 51.283020,64.063370 
	C52.086685,64.415062 52.621017,64.645004 53.155350,64.874947 
	C53.603317,65.218430 54.051285,65.561913 54.751724,66.039276 
	C55.264030,66.623337 55.523861,67.073517 55.862694,67.771378 
z"/>
<path fill="#FBC239" opacity="1.000000" stroke="none" 
	d="
M61.636204,66.126633 
	C62.027824,66.602905 62.020336,67.002266 62.016373,67.701225 
	C62.008453,70.041924 61.997009,72.083015 61.976971,74.561272 
	C60.651558,72.312912 59.334747,69.627388 58.008659,66.562347 
	C59.078621,66.138466 60.157860,66.094093 61.636204,66.126633 
z"/>
<path fill="#FBC239" opacity="1.000000" stroke="none" 
	d="
M61.690525,78.039314 
	C61.994293,78.444695 62.000282,78.889137 62.005684,79.666962 
	C61.485855,79.768883 60.966625,79.537415 60.447392,79.305946 
	C60.762508,78.896751 61.077629,78.487564 61.690525,78.039314 
z"/>
<path fill="#B03D8F" opacity="1.000000" stroke="none" 
	d="
M33.912956,49.830528 
	C33.999889,50.000957 33.502480,50.004547 33.253815,50.004791 
	C33.278778,49.890060 33.552402,49.775078 33.912956,49.830528 
z"/>
<path fill="#78BD61" opacity="1.000000" stroke="none" 
	d="
M65.877075,52.108086 
	C65.430832,51.761425 64.984596,51.414764 64.277328,50.513035 
	C63.554008,44.190380 62.577511,38.406139 65.768623,32.958096 
	C66.353798,31.959057 65.982353,30.399698 66.038620,29.040527 
	C66.024765,28.982077 65.973610,28.874846 66.222458,28.841080 
	C66.669769,28.546627 66.868233,28.285942 67.332230,27.901382 
	C68.176430,27.042978 68.755096,26.308449 69.526505,25.486721 
	C69.719246,25.399521 70.009804,25.091974 70.009804,25.091976 
	C73.385178,23.659050 76.760551,22.226122 80.509605,20.827240 
	C80.922287,24.621813 80.961288,28.382341 81.007591,32.570816 
	C79.183197,40.562336 74.366394,45.939556 67.856560,50.810364 
	C66.914688,51.525429 66.395882,51.816761 65.877075,52.108086 
z"/>
<path fill="#B7D73B" opacity="1.000000" stroke="none" 
	d="
M91.012329,50.972160 
	C92.912384,52.107979 94.812447,53.243797 96.869614,54.678688 
	C95.909828,54.757973 94.678383,54.769440 93.694130,54.281868 
	C85.692627,50.318165 78.099899,51.464588 70.388702,55.621902 
	C71.037178,54.201511 72.018387,53.076717 72.999603,51.951927 
	C75.184196,51.141788 77.368790,50.331646 79.775986,49.260601 
	C81.388931,49.003826 82.779289,49.007954 84.586807,49.002666 
	C85.750198,49.003006 86.496437,49.012756 87.672874,49.370399 
	C89.072830,50.136246 90.042580,50.554203 91.012329,50.972160 
z"/>
<path fill="#A6CC4F" opacity="1.000000" stroke="none" 
	d="
M90.984444,50.656975 
	C90.042580,50.554203 89.072830,50.136246 88.046021,49.377663 
	C88.458344,48.707909 88.927734,48.378780 89.698448,48.029694 
	C90.318710,48.787083 90.637634,49.564434 90.984444,50.656975 
z"/>
<path fill="#A6CC4F" opacity="1.000000" stroke="none" 
	d="
M72.743713,51.682083 
	C72.018387,53.076717 71.037178,54.201511 70.024300,55.658195 
	C69.992630,55.990089 69.999008,55.998940 69.639740,55.999420 
	C68.807266,56.017017 68.334061,56.034134 67.860863,56.051247 
	C67.224831,54.955101 66.588799,53.858959 65.914917,52.435452 
	C66.395882,51.816761 66.914688,51.525429 67.705261,51.112602 
	C69.480637,51.131481 70.984230,51.271858 72.743713,51.682083 
z"/>
<path fill="#6EBB86" opacity="1.000000" stroke="none" 
	d="
M66.052475,29.098980 
	C65.982353,30.399698 66.353798,31.959057 65.768623,32.958096 
	C62.577511,38.406139 63.554008,44.190380 64.021820,50.383987 
	C63.216988,50.248684 62.406643,49.687366 61.324879,48.981865 
	C61.392414,43.554939 61.731373,38.272198 62.159016,32.579655 
	C63.081520,31.309797 63.915340,30.449739 65.133141,29.297106 
	C65.695572,29.036013 65.874023,29.067495 66.052475,29.098980 
z"/>
<path fill="#7850A2" opacity="1.000000" stroke="none" 
	d="
M54.887695,39.018826 
	C54.599239,37.856365 54.310783,36.693905 54.072411,35.145294 
	C54.122490,34.759148 54.572662,34.928436 54.844269,35.197742 
	C55.223286,35.668049 55.372887,35.830090 55.564682,35.953175 
	C55.660458,36.408401 55.756233,36.863632 55.871300,37.895870 
	C55.890587,38.472881 55.850479,38.939793 55.609901,38.960983 
	C55.369324,38.982174 54.887695,39.018826 54.887695,39.018826 
z"/>
<path fill="#7095CA" opacity="1.000000" stroke="none" 
	d="
M55.850479,38.939793 
	C55.850479,38.939793 55.890587,38.472881 55.924232,38.241043 
	C56.173279,38.862400 56.388680,39.715595 56.367210,40.748608 
	C56.130344,40.928425 56.032284,41.037144 55.998734,40.689346 
	C55.926949,39.874298 55.888714,39.407047 55.850479,38.939793 
z"/>
<path fill="#7850A2" opacity="1.000000" stroke="none" 
	d="
M54.106735,33.735596 
	C53.643887,33.712631 53.223755,33.439117 53.005569,33.028404 
	C53.374863,32.906944 53.542206,32.922688 53.962360,32.959709 
	C54.193260,33.149002 54.171356,33.317024 54.106735,33.735596 
z"/>
<path fill="#6D66AC" opacity="1.000000" stroke="none" 
	d="
M55.975235,43.776871 
	C55.754280,43.863659 55.562782,43.690990 55.427887,43.481815 
	C55.393585,43.428619 55.539120,43.259449 55.776894,43.048553 
	C55.976414,43.136982 56.001064,43.320423 55.975235,43.776871 
z"/>
<path fill="#6D66AC" opacity="1.000000" stroke="none" 
	d="
M55.584190,35.763611 
	C55.372887,35.830090 55.223286,35.668049 55.056587,35.310654 
	C55.277302,35.182037 55.479435,35.321968 55.584190,35.763611 
z"/>
<path fill="#F5914A" opacity="1.000000" stroke="none" 
	d="
M51.013695,63.941620 
	C47.216610,66.862740 43.419525,69.783859 39.323921,72.874969 
	C40.312637,70.937714 41.599873,68.830482 42.943909,66.374443 
	C43.654152,65.224487 44.307598,64.423340 44.971310,63.295506 
	C44.981575,62.968822 44.995693,62.996487 45.202404,62.912273 
	C45.684002,62.662560 45.885780,62.432846 46.014446,62.138927 
	C46.488544,61.837902 46.962646,61.536880 48.032539,61.123726 
	C49.082897,61.017445 49.537464,61.023296 50.017673,61.341576 
	C50.366779,62.416538 50.690239,63.179077 51.013695,63.941620 
z"/>
<path fill="#B33F6A" opacity="1.000000" stroke="none" 
	d="
M31.424723,64.946945 
	C33.187412,64.442116 35.366104,63.971657 37.799973,63.800430 
	C35.983673,64.393547 33.912201,64.687431 31.424723,64.946945 
z"/>
<path fill="#5CB6E7" opacity="1.000000" stroke="none" 
	d="
M70.006157,24.624750 
	C70.009804,25.091974 69.719246,25.399521 69.335068,25.077923 
	C67.391998,22.762865 69.124199,17.948458 64.015152,18.998016 
	C64.471954,14.732570 64.313034,10.170089 69.678238,8.341780 
	C70.483536,8.920043 70.892174,9.237691 71.300804,9.555338 
	C71.536354,9.037782 71.771904,8.520226 72.007454,8.002670 
	C72.448555,8.001726 72.889648,8.000781 73.661407,8.001434 
	C73.473358,12.015660 75.806038,13.874306 79.568893,14.956725 
	C79.932350,15.447715 79.943298,15.900839 79.900726,16.690639 
	C76.976997,15.988170 74.106781,14.949024 70.002510,13.463092 
	C70.002510,17.568623 70.002510,20.863075 70.006157,24.624750 
z"/>
<path fill="#57BAE0" opacity="1.000000" stroke="none" 
	d="
M64.010231,19.451918 
	C69.124199,17.948458 67.391998,22.762865 69.142319,25.165123 
	C68.755096,26.308449 68.176430,27.042978 67.106491,27.981075 
	C66.332558,28.350777 66.118690,28.580847 65.973610,28.874846 
	C65.973610,28.874846 66.024765,28.982077 66.038620,29.040527 
	C65.874023,29.067495 65.695572,29.036013 65.245132,28.996964 
	C64.973152,28.989399 64.499733,28.978394 64.263382,28.971554 
	C64.019791,25.945084 64.012550,22.925451 64.010231,19.451918 
z"/>
<path fill="#58B6DF" opacity="1.000000" stroke="none" 
	d="
M71.671837,8.000312 
	C71.771904,8.520226 71.536354,9.037782 71.300804,9.555338 
	C70.892174,9.237691 70.483536,8.920043 70.034332,8.304371 
	C70.441246,8.003549 70.888733,8.000751 71.671837,8.000312 
z"/>
<path fill="#6D66AC" opacity="1.000000" stroke="none" 
	d="
M55.609901,38.960983 
	C55.888714,39.407047 55.926949,39.874298 55.925560,40.691490 
	C55.584183,40.562263 55.282425,40.083096 54.934181,39.311378 
	C54.887695,39.018826 55.369324,38.982174 55.609901,38.960983 
z"/>
<path fill="#E8935E" opacity="1.000000" stroke="none" 
	d="
M51.283024,64.063370 
	C50.690239,63.179077 50.366779,62.416538 50.004730,61.073242 
	C49.945709,60.314796 49.925278,60.137108 49.904842,59.959415 
	C49.904842,59.959415 49.984177,59.890278 50.033554,59.906612 
	C51.065769,61.353287 52.048611,62.783623 53.093399,64.544449 
	C52.621017,64.645004 52.086685,64.415062 51.283024,64.063370 
z"/>
<path fill="#B7D73B" opacity="1.000000" stroke="none" 
	d="
M67.826675,56.338379 
	C68.334061,56.034134 68.807266,56.017017 69.635422,55.996109 
	C69.745369,56.797215 69.500366,57.602108 69.131500,58.702469 
	C68.738205,59.027061 68.468765,59.056183 67.795441,59.150459 
	C67.525192,58.352253 67.658836,57.488880 67.826675,56.338379 
z"/>
<path fill="#EE8869" opacity="1.000000" stroke="none" 
	d="
M49.610367,59.984711 
	C49.925278,60.137108 49.945709,60.314796 49.979088,60.760818 
	C49.537464,61.023296 49.082897,61.017445 48.286671,61.001022 
	C48.401970,60.663639 48.858932,60.336823 49.610367,59.984711 
z"/>
<path fill="#EE8869" opacity="1.000000" stroke="none" 
	d="
M45.771770,62.176723 
	C45.885780,62.432846 45.684002,62.662560 45.190815,62.909893 
	C45.032776,62.642906 45.218304,62.383835 45.771770,62.176723 
z"/>
<path fill="#65B4D3" opacity="1.000000" stroke="none" 
	d="
M66.222458,28.841080 
	C66.118690,28.580847 66.332558,28.350777 66.840958,28.104946 
	C66.868233,28.285942 66.669769,28.546627 66.222458,28.841080 
z"/>
</svg>